<svg width="115" height="27" viewBox="0 0 115 27" fill="none" xmlns="http://www.w3.org/2000/svg">
<g clip-path="url(#clip0_4_21)">
<path d="M13.544 26.0906C20.84 26.0906 26.456 20.4266 26.456 13.5146C26.456 6.69855 20.888 0.98655 13.544 0.98655C6.296 0.98655 0.68 6.65055 0.68 13.5146C0.68 20.4266 6.248 26.0906 13.544 26.0906ZM13.544 19.7066C10.04 19.7066 7.496 16.9226 7.496 13.5626C7.496 10.2026 10.04 7.41855 13.544 7.41855C17.048 7.41855 19.64 10.2026 19.64 13.5626C19.64 16.9226 17.048 19.7066 13.544 19.7066ZM38.2475 26.1386C41.0315 26.1386 43.1435 24.4586 43.9595 21.0986L47.5115 6.93855C47.5115 6.93855 47.4635 6.89055 47.5595 6.89055C47.7035 6.89055 47.6555 6.93855 47.6555 6.93855L51.2075 21.0986C52.0715 24.4586 54.1355 26.1386 56.9195 26.1386C59.5115 26.1386 62.2475 24.5546 63.0155 21.0986L67.3835 1.70655H61.0955L57.1115 19.8026C57.1115 19.8986 57.1115 19.9466 56.9675 19.9466C56.8235 19.9466 56.8235 19.8986 56.8235 19.8506L53.3195 5.97855C52.5035 2.66655 50.5835 0.98655 47.6075 0.98655C44.6795 0.98655 42.7115 2.66655 41.7995 6.07455L38.2955 19.8506C38.2955 19.8506 38.3435 19.8986 38.1995 19.8986C38.0075 19.8986 38.0555 19.8986 38.0555 19.8026L33.9275 1.70655H27.5435L32.1035 21.0986C32.9195 24.5066 35.6075 26.1386 38.2475 26.1386ZM81.8128 7.65855C85.7008 7.65855 87.4768 10.7786 87.4768 14.4266V25.4666H94.2928V13.6106C94.2928 6.65055 90.1168 1.03455 81.8128 1.03455C73.5088 1.03455 69.4288 6.69855 69.4288 13.6106V25.4666H76.2448V14.4266C76.2448 10.7786 77.9728 7.65855 81.8128 7.65855ZM105.847 25.4666V12.0746C105.847 9.24255 107.479 7.51455 110.167 7.51455C111.415 7.51455 112.807 7.85055 113.959 8.52255V1.89855C112.759 1.37055 111.079 1.08255 109.543 1.08255C102.487 1.08255 99.0313 5.73855 99.0313 11.8346V25.4666H105.847Z" fill="#061F48"/>
</g>
<defs>
<clipPath id="clip0_4_21">
<rect width="115" height="27" fill="white"/>
</clipPath>
</defs>
</svg>
